<svg id="visual" viewBox="0 0 900 600" width="900" height="600" xmlns="http://www.w3.org/2000/svg" xmlns:xlink="http://www.w3.org/1999/xlink" version="1.1"><rect x="0" y="0" width="900" height="600" fill="#001220"></rect><defs><linearGradient id="grad1_0" x1="33.3%" y1="0%" x2="100%" y2="100%"><stop offset="20%" stop-color="#001220" stop-opacity="1"></stop><stop offset="80%" stop-color="#001220" stop-opacity="1"></stop></linearGradient></defs><defs><linearGradient id="grad2_0" x1="0%" y1="0%" x2="66.7%" y2="100%"><stop offset="20%" stop-color="#001220" stop-opacity="1"></stop><stop offset="80%" stop-color="#001220" stop-opacity="1"></stop></linearGradient></defs><g transform="translate(900, 0)"><path d="M0 459.7C-38.6 452.9 -77.2 446.1 -117.5 438.5C-157.8 430.9 -199.7 422.5 -229.9 398.1C-260 373.7 -278.2 333.3 -300.5 300.5C-322.8 267.8 -349.2 242.7 -368.1 212.5C-387 182.3 -398.4 146.8 -412.5 110.5C-426.5 74.2 -443.1 37.1 -459.7 0L0 0Z" fill="#FBAE3C"></path></g><g transform="translate(0, 600)"><path d="M0 -459.7C40.7 -457.7 81.5 -455.7 119 -444C156.5 -432.4 190.8 -410.9 225.5 -390.6C260.2 -370.2 295.4 -350.9 322.4 -322.4C349.5 -294 368.4 -256.5 380.2 -219.5C391.9 -182.5 396.5 -146 408.6 -109.5C420.6 -73 440.2 -36.5 459.7 0L0 0Z" fill="#FBAE3C"></path></g></svg>